# xmcd CD database file
#
# Track frame offsets:
#	150
#	13901
#	31185
#	52808
#	68613
#	86972
#	100734
#	116674
#	134048
#	149970
#	163639
#	182136
#
# Disc length: 2656 seconds
#
# Revision: 0
# Processed by: cddbd v1.5.2PL0 Copyright (c) Steve Scherf et al.
# Submitted via: CDex 1.51
#
DISCID=ad0a5e0c
DTITLE=Cagle, Chris - Play It Loud
DYEAR=1900
DGENRE=Country
TTITLE0=My Love Goes On and On
TTITLE1=Lorewdo
TTITLE2=The Safe Side
TTITLE3=Country by the Grace of God
TTITLE4=Ton of Love
TTITLE5=Play it Loud
TTITLE6=Who Needs the Whiskey
TTITLE7=The Love Between a Woman and a Man
TTITLE8=Lovin' You Lovin' Me
TTITLE9=Rock the Boat
TTITLE10=I Breathe In, I Breathe Out
TTITLE11=Are You Ever Gonna' Love Me?
EXTD=
EXTT0=
EXTT1=
EXTT2=
EXTT3=
EXTT4=
EXTT5=
EXTT6=
EXTT7=
EXTT8=
EXTT9=
EXTT10=
EXTT11=
PLAYORDER=
